<svg width="1000" height="1000" viewBox="0 0 1000 1000" fill="none" xmlns="http://www.w3.org/2000/svg">
  <defs>
    <!-- Prismatic Spectrum Gradients -->
    <linearGradient id="prismPurple" x1="0%" y1="0%" x2="100%" y2="100%">
      <stop offset="0%" stop-color="#A855F7" stop-opacity="0.8"/>
      <stop offset="100%" stop-color="#6366F1" stop-opacity="0.2"/>
    </linearGradient>
    <linearGradient id="prismMagenta" x1="100%" y1="0%" x2="0%" y2="100%">
      <stop offset="0%" stop-color="#EC4899" stop-opacity="0.7"/>
      <stop offset="100%" stop-color="#A855F7" stop-opacity="0.1"/>
    </linearGradient>
    <linearGradient id="prismIndigo" x1="50%" y1="0%" x2="50%" y2="100%">
      <stop offset="0%" stop-color="#6366F1" stop-opacity="0.9"/>
      <stop offset="100%" stop-color="transparent" stop-opacity="0"/>
    </linearGradient>
    
    <filter id="prismGlow" x="-50%" y="-50%" width="200%" height="200%">
      <feGaussianBlur stdDeviation="15" result="blur"/>
      <feBlend mode="screen" in="SourceGraphic" in2="blur"/>
    </filter>
  </defs>

  <g filter="url(#prismGlow)">
    <!-- Central Ascension 'X' Form (Evolved Logo) -->
    <g transform="translate(500, 500)">
      <!-- Massive burst of faceted diamonds -->
      <path d="M0 -400L50 -100L0 0L-50 -100Z" fill="url(#prismIndigo)" opacity="0.8"/>
      <path d="M0 400L50 100L0 0L-50 100Z" fill="url(#prismIndigo)" opacity="0.8"/>
      <path d="M-400 0L-100 -50L0 0L-100 50Z" fill="url(#prismPurple)" opacity="0.6"/>
      <path d="M400 0L100 -50L0 0L100 50Z" fill="url(#prismPurple)" opacity="0.6"/>
      
      <!-- Fractured Shards -->
      <g transform="rotate(45)">
        <rect x="-300" y="-2" width="600" height="4" fill="url(#prismMagenta)" opacity="0.5"/>
        <rect x="-2" y="-300" width="4" height="600" fill="url(#prismMagenta)" opacity="0.5"/>
      </g>

      <!-- Multi-faceted Center -->
      <circle cx="0" cy="0" r="40" fill="white" opacity="0.9"/>
      <path d="M0 -80L30 0L0 80L-30 0Z" fill="white" opacity="0.5"/>
      <path d="M-80 0L0 -30L80 0L0 30Z" fill="white" opacity="0.5"/>
      
      <!-- Thousands of small shards (represented by repeated paths) -->
      <g opacity="0.3">
        <path d="M100 -200L120 -150L100 -100Z" fill="#6366F1"/>
        <path d="M-150 -250L-130 -200L-170 -200Z" fill="#A855F7"/>
        <path d="M200 150L250 170L200 190Z" fill="#EC4899"/>
        <path d="M-200 100L-250 120L-200 140Z" fill="#6366F1"/>
      </g>
    </g>
  </g>
</svg>
