<svg width="864" height="1080" viewBox="0 0 864 1080" fill="none" xmlns="http://www.w3.org/2000/svg">
  <rect width="864" height="1080" fill="#0A0908"/>
  <rect width="864" height="1080" fill="url(#paint0_linear_1_1)"/>
  <circle cx="432" cy="400" r="300" fill="url(#paint1_radial_1_1)" opacity="0.4"/>
  <path d="M0 800C200 750 600 750 864 800V1080H0V800Z" fill="#1C1917"/>
  
  <rect x="412" y="320" width="40" height="480" fill="#0A0908" rx="2"/>
  <rect x="312" y="420" width="240" height="40" fill="#0A0908" rx="2"/>

  <rect x="180" y="450" width="20" height="350" fill="#0A0908" rx="2" transform="rotate(-5 180 450)"/>
  <rect x="130" y="520" width="120" height="20" fill="#0A0908" rx="2" transform="rotate(-5 130 520)"/>

  <rect x="660" y="450" width="20" height="350" fill="#0A0908" rx="2" transform="rotate(5 660 450)"/>
  <rect x="610" y="520" width="120" height="20" fill="#0A0908" rx="2" transform="rotate(5 610 520)"/>

  <defs>
    <linearGradient id="paint0_linear_1_1" x1="432" y1="0" x2="432" y2="1080" gradientUnits="userSpaceOnUse">
      <stop stop-color="#1E1B4B"/>
      <stop offset="0.6" stop-color="#312E81"/>
      <stop offset="0.9" stop-color="#4338CA" stop-opacity="0.8"/>
      <stop offset="1" stop-color="#6366F1" stop-opacity="0.6"/>
    </linearGradient>
    <radialGradient id="paint1_radial_1_1" cx="0" cy="0" r="1" gradientUnits="userSpaceOnUse" gradientTransform="translate(432 400) rotate(90) scale(400)">
      <stop stop-color="#FDE68A" stop-opacity="0.2"/>
      <stop offset="1" stop-color="#FDE68A" stop-opacity="0"/>
    </radialGradient>
  </defs>
</svg>
